<?xml version="1.0" encoding="UTF-8" standalone="no"?>
<svg
   xmlns:dc="http://purl.org/dc/elements/1.1/"
   xmlns:cc="http://creativecommons.org/ns#"
   xmlns:rdf="http://www.w3.org/1999/02/22-rdf-syntax-ns#"
   xmlns:svg="http://www.w3.org/2000/svg"
   xmlns="http://www.w3.org/2000/svg"
   xmlns:sodipodi="http://sodipodi.sourceforge.net/DTD/sodipodi-0.dtd"
   xmlns:inkscape="http://www.inkscape.org/namespaces/inkscape"
   version="1.1"
   id="svg4194"
   viewBox="0 0 625.29579 117.18626"
   height="33.072567mm"
   width="176.47237mm"
   inkscape:version="0.91 r13725"
   sodipodi:docname="S4S LogoType.svg">
  <sodipodi:namedview
     pagecolor="#ffffff"
     bordercolor="#666666"
     borderopacity="1"
     objecttolerance="10"
     gridtolerance="10"
     guidetolerance="10"
     inkscape:pageopacity="0"
     inkscape:pageshadow="2"
     inkscape:window-width="1368"
     inkscape:window-height="849"
     id="namedview19"
     showgrid="false"
     inkscape:zoom="2.0342373"
     inkscape:cx="314.22437"
     inkscape:cy="54.965254"
     inkscape:window-x="-8"
     inkscape:window-y="-8"
     inkscape:window-maximized="1"
     inkscape:current-layer="layer1" />
  <defs
     id="defs4196" />
  <metadata
     id="metadata4199">
    <rdf:RDF>
      <cc:Work
         rdf:about="">
        <dc:format>image/svg+xml</dc:format>
        <dc:type
           rdf:resource="http://purl.org/dc/dcmitype/StillImage" />
        <dc:title />
      </cc:Work>
    </rdf:RDF>
  </metadata>
  <g
     transform="translate(-56.007018,-105.86274)"
     id="layer1">
    <g
       style="font-style:normal;font-weight:normal;font-size:40px;line-height:125%;font-family:sans-serif;letter-spacing:0px;word-spacing:0px;fill:#000000;fill-opacity:1;stroke:none;stroke-width:1px;stroke-linecap:butt;stroke-linejoin:miter;stroke-opacity:1"
       id="text4235">
      <path
         d="m 214.39892,118.21093 q -2.475,0 -4.125,1.54 -1.65,1.485 -1.65,4.235 0,2.75 1.375,4.95 1.43,2.145 3.465,3.685 2.09,1.485 4.51,3.245 2.475,1.76 4.51,3.355 2.09,1.54 3.465,3.85 1.43,2.31 1.43,4.895 0,5.115 -4.18,8.69 -4.18,3.52 -11,3.52 -6.765,0 -10.725,-2.915 -3.96,-2.915 -3.96,-6.6 0,-3.685 2.2,-5.72 2.2,-2.09 5.665,-2.09 0.99,0 1.87,0.22 -1.705,2.53 -1.705,5.5 0,2.915 1.815,5.06 1.815,2.09 4.785,2.09 3.025,0 5.06,-1.54 2.035,-1.595 2.035,-4.015 0,-2.475 -1.375,-4.345 -1.375,-1.87 -3.41,-3.19 -2.035,-1.375 -4.455,-3.08 -2.42,-1.76 -4.455,-3.52 -2.035,-1.76 -3.41,-4.455 -1.375,-2.75 -1.375,-5.995 0,-5.225 3.795,-8.305 3.795,-3.135 10.23,-3.135 6.435,0 9.735,2.915 3.355,2.86 3.355,6.16 0,3.245 -2.09,5.5 -2.09,2.2 -5.665,2.2 -1.21,0 -2.365,-0.22 2.695,-2.86 2.695,-5.995 0,-3.19 -1.76,-4.84 -1.76,-1.65 -4.29,-1.65 z"
         style="font-size:55px;letter-spacing:-1.88999999px;fill:#432179;fill-opacity:1"
         id="path3348" />
      <path
         d="m 248.52877,131.24593 q -3.575,0 -6.38,4.84 -2.805,4.785 -2.805,9.57 0,10.01 5.17,10.01 3.685,0 5.995,-4.785 2.31,-4.84 2.31,-10.835 0,-8.8 -4.29,-8.8 z m -4.675,-4.95 q 0.605,0 1.1,0.385 0.55,0.33 0.55,0.715 -5.555,3.85 -6.655,10.725 1.155,-3.08 2.805,-5.335 1.705,-2.255 3.52,-3.41 3.465,-2.145 6.765,-2.145 3.3,0 5.61,3.245 2.31,3.245 2.31,8.69 0,6.105 -2.475,11.22 -2.75,5.775 -7.81,7.975 -2.86,1.265 -6.27,1.265 -4.785,0 -8.36,-3.685 -3.52,-3.74 -3.52,-10.67 0,-6.985 3.41,-12.265 3.41,-5.335 9.02,-6.71 z"
         style="font-size:55px;letter-spacing:-1.88999999px;fill:#432179;fill-opacity:1"
         id="path3350" />
      <path
         d="m 265.40408,157.42593 q -0.66,-1.1 -0.825,-2.09 -0.165,-1.045 -0.165,-3.19 0,-2.145 1.815,-16.885 1.87,-14.74 1.87,-20.24 0,-5.5 -0.66,-7.15 4.125,1.1 5.61,3.355 1.54,2.2 1.54,6.27 0,2.42 -1.595,15.73 -1.595,13.31 -1.595,21.45 0,1.76 0.22,4.95 -5.005,-0.22 -6.215,-2.2 z"
         style="font-size:55px;letter-spacing:-1.88999999px;fill:#432179;fill-opacity:1"
         id="path3352" />
      <path
         d="m 296.88963,127.06593 q 1.65,-0.11 2.31,-0.11 2.86,0 4.345,1.045 1.485,1.045 1.485,3.85 0,0.88 -1.045,7.755 -1.045,6.82 -1.045,11.715 0,4.895 1.045,8.635 -4.125,-1.32 -5.72,-3.74 -1.595,-2.42 -1.595,-5.995 0,-1.375 0.605,-6.215 -1.705,6.27 -5.225,10.56 -3.465,4.235 -6.545,4.235 -6.325,0 -6.325,-9.13 0,-3.025 0.88,-8.415 0.935,-5.445 0.935,-8.25 0,-2.805 -0.77,-5.665 4.565,0 6.6,1.21 2.09,1.155 2.09,4.675 0,1.87 -1.155,7.425 -1.155,5.555 -1.155,8.36 0,4.07 2.2,4.07 1.1,0 2.53,-1.485 1.43,-1.54 2.75,-4.015 1.32,-2.53 2.2,-6.27 0.935,-3.795 0.935,-7.645 0,-3.905 -0.33,-6.6 z"
         style="font-size:55px;letter-spacing:-1.88999999px;fill:#432179;fill-opacity:1"
         id="path3354" />
      <path
         d="m 321.86541,132.95093 q -0.275,1.98 -1.155,6.875 -1.87,10.395 -1.87,15.4 0,5.005 0.77,6.71 -4.235,-1.1 -5.83,-3.355 -1.595,-2.31 -1.595,-6.49 0,-3.685 1.155,-10.065 1.155,-6.435 1.485,-8.69 -2.86,0.495 -6.105,1.925 -0.11,-1.21 -0.11,-1.815 0,-2.915 1.76,-3.96 1.76,-1.1 5.06,-1.155 0.385,-4.125 0.385,-5.94 0,-1.815 -0.055,-3.025 0,-1.21 0,-1.815 3.63,0.385 5.28,2.2 1.65,1.76 1.65,5.06 0,1.32 -0.275,3.685 4.62,-0.11 6.765,-1.815 0.11,1.1 0.11,1.65 0,2.64 -0.935,3.685 -0.935,0.99 -3.135,0.99 -2.2,0 -3.355,-0.055 z"
         style="font-size:55px;letter-spacing:-1.88999999px;fill:#432179;fill-opacity:1"
         id="path3356" />
      <path
         d="m 340.19994,131.46593 q 0,0.825 -1.375,8.69 -1.32,7.81 -1.375,12.925 0,5.06 0.66,6.545 -4.29,-1.1 -5.775,-3.3 -1.485,-2.255 -1.485,-6.545 0,-2.31 0.88,-8.36 0.88,-6.05 0.88,-9.405 0,-3.355 -0.33,-5.17 1.21,-0.11 2.255,-0.11 3.19,0 4.4,1.1 1.265,1.045 1.265,3.63 z m 0.825,-9.57 q -1.54,0.22 -2.695,0.22 -5.665,0 -5.665,-3.96 0,-1.43 0.825,-3.905 1.54,-0.22 2.695,-0.22 5.665,0 5.665,3.96 0,1.43 -0.825,3.905 z"
         style="font-size:55px;letter-spacing:-1.88999999px;fill:#432179;fill-opacity:1"
         id="path3358" />
      <path
         d="m 361.64713,131.24593 q -3.575,0 -6.38,4.84 -2.805,4.785 -2.805,9.57 0,10.01 5.17,10.01 3.685,0 5.995,-4.785 2.31,-4.84 2.31,-10.835 0,-8.8 -4.29,-8.8 z m -4.675,-4.95 q 0.605,0 1.1,0.385 0.55,0.33 0.55,0.715 -5.555,3.85 -6.655,10.725 1.155,-3.08 2.805,-5.335 1.705,-2.255 3.52,-3.41 3.465,-2.145 6.765,-2.145 3.3,0 5.61,3.245 2.31,3.245 2.31,8.69 0,6.105 -2.475,11.22 -2.75,5.775 -7.81,7.975 -2.86,1.265 -6.27,1.265 -4.785,0 -8.36,-3.685 -3.52,-3.74 -3.52,-10.67 0,-6.985 3.41,-12.265 3.41,-5.335 9.02,-6.71 z"
         style="font-size:55px;letter-spacing:-1.88999999px;fill:#432179;fill-opacity:1"
         id="path3360" />
      <path
         d="m 398.48744,127.06593 q 3.245,0 4.62,2.035 1.43,1.98 1.43,5.445 0,3.41 -1.1,9.625 -1.045,6.215 -1.045,9.075 0,2.805 0.715,4.125 0.715,1.265 2.42,2.2 -0.715,0.055 -2.035,0.055 -4.62,0 -6.6,-1.43 -1.925,-1.43 -1.925,-5.005 0,-2.035 1.1,-7.92 1.1,-5.94 1.1,-8.855 0,-3.63 -2.2,-3.63 -1.265,0 -2.86,1.485 -1.595,1.485 -3.08,4.07 -1.485,2.53 -2.475,6.545 -0.99,4.015 -0.99,8.03 0,3.96 0.33,5.885 -1.76,0.11 -2.31,0.11 -3.135,0 -4.51,-1.1 -1.375,-1.1 -1.375,-3.63 0,-1.1 1.155,-8.47 1.155,-7.37 1.155,-11.715 0,-4.4 -0.935,-8.085 4.015,1.265 5.61,3.63 1.595,2.31 1.595,5.335 0,2.97 -0.66,6.93 1.815,-6.16 5.72,-10.45 3.905,-4.29 7.15,-4.29 z"
         style="font-size:55px;letter-spacing:-1.88999999px;fill:#432179;fill-opacity:1"
         id="path3362" />
      <path
         d="m 422.05987,130.31093 q -1.54,0 -2.75,1.045 -1.21,0.99 -1.21,2.86 0,1.87 1.265,3.52 1.32,1.65 3.19,2.915 1.87,1.21 3.74,2.53 1.925,1.265 3.355,3.19 1.43,1.87 1.595,4.18 0,3.96 -3.41,6.655 -3.41,2.695 -8.47,2.695 -5.06,0 -7.975,-2.035 -2.86,-2.035 -2.86,-4.675 0,-2.64 1.595,-4.235 1.65,-1.65 4.07,-1.65 1.265,0 2.365,0.44 -1.76,1.87 -1.76,3.96 0,2.09 1.155,3.355 1.155,1.265 3.135,1.265 1.98,0 3.3,-0.99 1.375,-1.045 1.375,-2.64 0,-1.65 -0.935,-2.915 -0.935,-1.265 -2.365,-2.2 -1.375,-0.99 -3.025,-2.2 -1.65,-1.21 -3.08,-2.42 -1.375,-1.265 -2.31,-3.135 -0.935,-1.925 -0.935,-4.18 0,-3.905 3.19,-6.38 3.245,-2.53 8.03,-2.53 4.84,0 7.04,1.87 2.255,1.87 2.255,4.4 0,2.475 -1.595,4.235 -1.54,1.76 -4.015,1.76 -1.21,0 -2.75,-0.495 1.21,-1.045 1.87,-2.365 0.66,-1.375 0.66,-2.695 0,-1.32 -1.1,-2.2 -1.1,-0.935 -2.64,-0.935 z"
         style="font-size:55px;letter-spacing:-1.88999999px;fill:#432179;fill-opacity:1"
         id="path3364" />
      <path
         d="m 436.39229,151.15593 q -1.43,-1.54 -1.43,-4.4 0,-0.44 0.33,-1.045 0.385,-0.605 3.3,-5.5 2.915,-4.895 3.85,-6.6 0.935,-1.705 2.805,-5.28 3.135,-6.05 4.18,-11.165 0.495,0.11 1.595,0.77 1.155,0.66 1.87,1.265 0.715,0.55 1.265,1.54 0.605,0.99 0.605,2.53 0,1.485 -2.035,5.005 -1.98,3.465 -5.665,8.91 -3.63,5.445 -5.61,8.965 5.94,-0.165 11.66,-0.605 0.77,-4.785 0.77,-7.315 0,-2.53 -0.11,-4.4 1.1,-0.11 1.87,-0.11 4.62,0 4.62,4.235 0,1.815 -0.715,7.04 l 3.74,-0.385 q 0.385,1.375 0.385,2.86 0,4.455 -4.345,4.455 l -0.605,0 q -0.055,1.045 -0.055,4.18 0,3.08 0.33,4.62 -1.21,0.11 -2.145,0.11 -2.915,0 -4.235,-1.43 -1.32,-1.375 -1.32,-3.52 0,-0.825 0.66,-4.125 l -15.565,-0.605 z"
         style="font-size:55px;letter-spacing:-1.88999999px;fill:#e15e0d;fill-opacity:1"
         id="path3366" />
      <path
         d="m 482.74502,118.21093 q -2.475,0 -4.125,1.54 -1.65,1.485 -1.65,4.235 0,2.75 1.375,4.95 1.43,2.145 3.465,3.685 2.09,1.485 4.51,3.245 2.475,1.76 4.51,3.355 2.09,1.54 3.465,3.85 1.43,2.31 1.43,4.895 0,5.115 -4.18,8.69 -4.18,3.52 -11,3.52 -6.765,0 -10.725,-2.915 -3.96,-2.915 -3.96,-6.6 0,-3.685 2.2,-5.72 2.2,-2.09 5.665,-2.09 0.99,0 1.87,0.22 -1.705,2.53 -1.705,5.5 0,2.915 1.815,5.06 1.815,2.09 4.785,2.09 3.025,0 5.06,-1.54 2.035,-1.595 2.035,-4.015 0,-2.475 -1.375,-4.345 -1.375,-1.87 -3.41,-3.19 -2.035,-1.375 -4.455,-3.08 -2.42,-1.76 -4.455,-3.52 -2.035,-1.76 -3.41,-4.455 -1.375,-2.75 -1.375,-5.995 0,-5.225 3.795,-8.305 3.795,-3.135 10.23,-3.135 6.435,0 9.735,2.915 3.355,2.86 3.355,6.16 0,3.245 -2.09,5.5 -2.09,2.2 -5.665,2.2 -1.21,0 -2.365,-0.22 2.695,-2.86 2.695,-5.995 0,-3.19 -1.76,-4.84 -1.76,-1.65 -4.29,-1.65 z"
         style="font-size:55px;letter-spacing:-1.88999999px;fill:#432179;fill-opacity:1"
         id="path3368" />
      <path
         d="m 512.19985,132.95093 q -0.275,1.98 -1.155,6.875 -1.87,10.395 -1.87,15.4 0,5.005 0.77,6.71 -4.235,-1.1 -5.83,-3.355 -1.595,-2.31 -1.595,-6.49 0,-3.685 1.155,-10.065 1.155,-6.435 1.485,-8.69 -2.86,0.495 -6.105,1.925 -0.11,-1.21 -0.11,-1.815 0,-2.915 1.76,-3.96 1.76,-1.1 5.06,-1.155 0.385,-4.125 0.385,-5.94 0,-1.815 -0.055,-3.025 0,-1.21 0,-1.815 3.63,0.385 5.28,2.2 1.65,1.76 1.65,5.06 0,1.32 -0.275,3.685 4.62,-0.11 6.765,-1.815 0.11,1.1 0.11,1.65 0,2.64 -0.935,3.685 -0.935,0.99 -3.135,0.99 -2.2,0 -3.355,-0.055 z"
         style="font-size:55px;letter-spacing:-1.88999999px;fill:#432179;fill-opacity:1"
         id="path3370" />
      <path
         d="m 528.3344,140.92593 q 1.98,-7.15 4.73,-10.505 2.805,-3.41 5.17,-3.41 2.42,0 3.63,1.815 1.21,1.76 1.21,4.62 0,2.805 -1.705,5.17 -1.65,2.365 -4.565,2.365 -0.77,0 -1.815,-0.44 1.705,-2.145 1.705,-5.17 0,-1.76 -1.43,-1.76 -1.045,0 -2.255,1.485 -1.21,1.43 -2.31,4.015 -1.1,2.53 -1.87,6.545 -0.715,3.96 -0.715,8.47 0,0.55 0.275,4.675 -1.76,0.11 -2.255,0.11 -3.135,0 -4.51,-1.1 -1.375,-1.1 -1.375,-3.63 0,-1.1 1.155,-8.47 1.155,-7.37 1.155,-11.715 0,-4.4 -0.935,-8.085 4.015,1.265 5.61,3.63 1.595,2.31 1.595,5.445 0,3.08 -0.495,5.94 z"
         style="font-size:55px;letter-spacing:-1.88999999px;fill:#432179;fill-opacity:1"
         id="path3372" />
      <path
         d="m 550.19837,148.40593 q 0,2.585 0.935,4.235 0.99,1.595 2.75,1.595 2.585,0 4.895,-3.025 2.365,-3.025 3.74,-7.755 1.43,-4.73 1.43,-8.965 0,-4.29 -0.33,-6.93 1.65,-0.11 2.31,-0.11 2.805,0 4.235,1.045 1.43,1.045 1.43,3.74 0,1.045 -1.32,8.525 -1.32,7.425 -1.32,11.935 0,4.455 1.705,7.92 -4.125,-0.715 -6.05,-3.025 -1.925,-2.365 -1.925,-6.765 0,-0.77 0.22,-2.97 -1.485,5.225 -5.28,8.415 -3.795,3.19 -7.48,3.19 -3.63,0 -5.885,-2.695 -2.2,-2.75 -2.2,-7.755 0,-5.005 1.76,-9.68 1.815,-4.73 5.39,-7.975 3.575,-3.3 7.975,-3.3 2.53,0 5.17,1.21 -5.555,1.98 -8.855,7.81 -3.3,5.775 -3.3,11.33 z"
         style="font-size:55px;letter-spacing:-1.88999999px;fill:#432179;fill-opacity:1"
         id="path3374" />
      <path
         d="m 588.17049,132.95093 q -0.275,1.98 -1.155,6.875 -1.87,10.395 -1.87,15.4 0,5.005 0.77,6.71 -4.235,-1.1 -5.83,-3.355 -1.595,-2.31 -1.595,-6.49 0,-3.685 1.155,-10.065 1.155,-6.435 1.485,-8.69 -2.86,0.495 -6.105,1.925 -0.11,-1.21 -0.11,-1.815 0,-2.915 1.76,-3.96 1.76,-1.1 5.06,-1.155 0.385,-4.125 0.385,-5.94 0,-1.815 -0.055,-3.025 0,-1.21 0,-1.815 3.63,0.385 5.28,2.2 1.65,1.76 1.65,5.06 0,1.32 -0.275,3.685 4.62,-0.11 6.765,-1.815 0.11,1.1 0.11,1.65 0,2.64 -0.935,3.685 -0.935,0.99 -3.135,0.99 -2.2,0 -3.355,-0.055 z"
         style="font-size:55px;letter-spacing:-1.88999999px;fill:#432179;fill-opacity:1"
         id="path3376" />
      <path
         d="m 608.37501,145.27093 q -2.64,0 -5.17,-0.605 -0.055,0.55 -0.055,1.705 0,4.565 1.705,6.875 1.705,2.31 4.07,2.31 2.365,0 4.51,-1.43 2.145,-1.43 3.74,-3.96 1.98,0.44 1.98,2.035 -4.84,7.425 -12.485,7.425 -4.62,0 -8.085,-3.52 -3.465,-3.575 -3.465,-9.9 0,-4.73 1.815,-8.965 1.815,-4.29 5.775,-7.205 3.96,-2.97 8.745,-2.97 4.84,0 7.095,2.2 2.255,2.2 2.255,5.775 0,5.17 -3.63,7.7 -3.575,2.53 -8.8,2.53 z m 2.31,-14.795 q -2.805,0 -4.73,3.465 -1.925,3.465 -2.53,8.415 l 0.825,0 q 4.785,0 7.04,-2.475 2.31,-2.475 2.31,-5.94 0,-1.43 -0.77,-2.42 -0.715,-1.045 -2.145,-1.045 z"
         style="font-size:55px;letter-spacing:-1.88999999px;fill:#432179;fill-opacity:1"
         id="path3378" />
      <path
         d="m 641.7151,127.61593 q 1.045,0 1.595,0.11 1.43,0.275 1.54,2.035 -5.995,1.265 -9.57,6.49 -3.52,5.225 -3.52,10.89 0,6.6 4.015,6.6 2.42,0 4.345,-2.64 3.41,-4.785 4.785,-14.96 1.045,-8.03 3.905,-10.34 1.375,-1.155 3.41,-1.815 -0.77,5.83 -0.77,8.8 0,22 -4.73,33.055 -4.675,11.055 -15.29,11.055 -4.29,0 -6.71,-2.31 -2.42,-2.255 -2.42,-5.005 0,-2.695 1.705,-4.455 1.705,-1.705 4.785,-1.705 1.265,0 2.585,0.55 -2.09,1.375 -2.09,4.235 0,1.925 1.155,3.3 1.155,1.43 2.805,1.43 1.705,0 2.97,-0.715 1.265,-0.66 2.585,-2.42 1.32,-1.76 2.31,-4.4 2.255,-6.105 2.475,-16.665 -1.595,4.73 -4.84,7.59 -3.245,2.86 -6.6,2.86 -4.235,0 -6.49,-3.19 -2.2,-3.245 -2.2,-8.25 0,-5.83 2.805,-10.835 3.135,-5.775 8.69,-8.03 3.08,-1.265 6.765,-1.265 z"
         style="font-size:55px;letter-spacing:-1.88999999px;fill:#432179;fill-opacity:1"
         id="path3380" />
      <path
         d="m 681.30282,130.86093 q 0,1.925 -1.65,5.225 -1.65,3.245 -4.015,7.205 -2.365,3.96 -4.73,8.47 -2.365,4.455 -4.015,10.065 -1.65,5.665 -1.65,11.055 0,2.475 0.385,4.73 -4.455,-0.825 -6.05,-2.475 -1.595,-1.595 -1.595,-3.795 0,-3.025 4.4,-11.935 -0.825,-3.41 -2.035,-10.67 -1.21,-7.315 -2.475,-12.705 -1.21,-5.39 -2.805,-8.03 3.025,-1.43 4.84,-1.43 1.815,0 2.75,0.825 0.935,0.825 1.54,3.3 0.66,2.42 0.935,4.015 0.77,5.28 0.77,5.885 0,0.605 0.44,4.95 0.44,4.29 0.66,5.665 9.79,-18.975 9.79,-25.355 4.51,2.31 4.51,5.005 z"
         style="font-size:55px;letter-spacing:-1.88999999px;fill:#432179;fill-opacity:1"
         id="path3382" />
      <path
         d="m 205.77392,217.43198 q 5.845,0 6.65,-13.755 -1.295,1.855 -3.115,2.835 -1.82,0.945 -3.745,0.945 -3.36,0 -5.775,-2.73 -2.415,-2.73 -2.415,-7.595 0,-6.685 3.465,-11.62 1.68,-2.415 4.34,-3.815 2.66,-1.435 6.055,-1.435 3.43,0 5.215,1.785 1.82,1.75 1.82,4.34 0,2.59 -1.61,4.095 -1.61,1.505 -3.815,1.505 -1.435,0 -2.73,-0.7 -1.295,-0.7 -1.995,-2.03 0.945,0.245 1.785,0.245 1.89,0 2.975,-1.085 1.12,-1.085 1.12,-2.45 0,-1.365 -0.91,-2.24 -0.91,-0.91 -2.59,-0.91 -2.205,0 -4.025,2.275 -1.785,2.24 -2.695,5.46 -0.91,3.185 -0.91,6.615 0,3.43 1.33,5.39 1.365,1.925 3.29,1.925 1.925,0 3.325,-1.89 1.435,-1.89 1.435,-5.11 0,-0.805 -0.105,-1.645 l 0,-0.105 q 0.77,-0.07 1.61,-0.07 2.03,0 2.8,0.7 0.805,0.665 0.805,2.31 0,10.675 -3.815,16.66 -1.33,2.065 -3.465,3.36 -2.135,1.295 -4.83,1.295 -3.675,0 -5.53,-1.89 -1.82,-1.855 -1.82,-4.27 0,-2.415 1.295,-3.885 1.295,-1.435 3.22,-1.435 1.05,0 2.31,0.595 -1.855,2.345 -1.855,4.935 0,1.505 0.7,2.45 0.7,0.945 2.205,0.945 z"
         style="font-style:normal;font-variant:normal;font-weight:normal;font-stretch:normal;font-size:35px;font-family:'Merienda One';-inkscape-font-specification:'Merienda One';fill:#e15e0d;fill-opacity:1"
         id="path3384" />
      <path
         d="m 227.63142,197.09698 q 1.26,-4.55 3.01,-6.685 1.785,-2.17 3.29,-2.17 1.54,0 2.31,1.155 0.77,1.12 0.77,2.94 0,1.785 -1.085,3.29 -1.05,1.505 -2.905,1.505 -0.49,0 -1.155,-0.28 1.085,-1.365 1.085,-3.29 0,-1.12 -0.91,-1.12 -0.665,0 -1.435,0.945 -0.77,0.91 -1.47,2.555 -0.7,1.61 -1.19,4.165 -0.455,2.52 -0.455,5.39 0,0.35 0.175,2.975 -1.12,0.07 -1.435,0.07 -1.995,0 -2.87,-0.7 -0.875,-0.7 -0.875,-2.31 0,-0.7 0.735,-5.39 0.735,-4.69 0.735,-7.455 0,-2.8 -0.595,-5.145 2.555,0.805 3.57,2.31 1.015,1.47 1.015,3.465 0,1.96 -0.315,3.78 z"
         style="font-style:normal;font-variant:normal;font-weight:normal;font-stretch:normal;font-size:35px;font-family:'Merienda One';-inkscape-font-specification:'Merienda One';fill:#e15e0d;fill-opacity:1"
         id="path3386" />
      <path
         d="m 248.87259,190.93698 q -2.275,0 -4.06,3.08 -1.785,3.045 -1.785,6.09 0,6.37 3.29,6.37 2.345,0 3.815,-3.045 1.47,-3.08 1.47,-6.895 0,-5.6 -2.73,-5.6 z m -2.975,-3.15 q 0.385,0 0.7,0.245 0.35,0.21 0.35,0.455 -3.535,2.45 -4.235,6.825 0.735,-1.96 1.785,-3.395 1.085,-1.435 2.24,-2.17 2.205,-1.365 4.305,-1.365 2.1,0 3.57,2.065 1.47,2.065 1.47,5.53 0,3.885 -1.575,7.14 -1.75,3.675 -4.97,5.075 -1.82,0.805 -3.99,0.805 -3.045,0 -5.32,-2.345 -2.24,-2.38 -2.24,-6.79 0,-4.445 2.17,-7.805 2.17,-3.395 5.74,-4.27 z"
         style="font-style:normal;font-variant:normal;font-weight:normal;font-stretch:normal;font-size:35px;font-family:'Merienda One';-inkscape-font-specification:'Merienda One';fill:#e15e0d;fill-opacity:1"
         id="path3388" />
      <path
         d="m 276.98416,208.47198 q -0.875,0.49 -2.17,0.49 -1.26,0 -1.4,-0.525 -0.63,-2.87 -1.12,-6.37 -0.49,-3.5 -0.63,-4.445 -3.675,7.595 -4.935,10.85 -0.84,0.49 -2.135,0.49 -1.295,0 -1.435,-0.525 -0.525,-2.24 -1.12,-6.685 -0.595,-4.48 -1.26,-7.805 -0.665,-3.36 -1.68,-5.075 1.925,-0.91 2.975,-0.91 1.085,0 1.575,0.385 0.525,0.35 0.84,1.19 0.35,0.805 0.56,1.75 0.21,0.945 0.35,2.45 0.14,1.47 0.245,2.835 0.385,5.145 0.63,7.07 3.08,-7.35 4.34,-11.515 -0.56,-2.03 -1.26,-3.255 1.925,-0.91 2.975,-0.91 1.085,0 1.575,0.385 0.525,0.35 0.84,1.19 0.35,0.805 0.56,1.75 0.21,0.945 0.35,2.45 0.14,1.47 0.245,2.835 0.385,5.145 0.63,7.07 5.18,-12.18 5.285,-16.135 2.765,1.47 2.765,3.01 0,1.505 -1.365,4.655 -1.365,3.115 -3.395,7.21 -2.03,4.06 -2.835,6.09 z"
         style="font-style:normal;font-variant:normal;font-weight:normal;font-stretch:normal;font-size:35px;font-family:'Merienda One';-inkscape-font-specification:'Merienda One';fill:#e15e0d;fill-opacity:1"
         id="path3390" />
      <path
         d="m 294.43275,192.02198 q -0.175,1.26 -0.735,4.375 -1.19,6.615 -1.19,9.8 0,3.185 0.49,4.27 -2.695,-0.7 -3.71,-2.135 -1.015,-1.47 -1.015,-4.13 0,-2.345 0.735,-6.405 0.735,-4.095 0.945,-5.53 -1.82,0.315 -3.885,1.225 -0.07,-0.77 -0.07,-1.155 0,-1.855 1.12,-2.52 1.12,-0.7 3.22,-0.735 0.245,-2.625 0.245,-3.78 0,-1.155 -0.035,-1.925 0,-0.77 0,-1.155 2.31,0.245 3.36,1.4 1.05,1.12 1.05,3.22 0,0.84 -0.175,2.345 2.94,-0.07 4.305,-1.155 0.07,0.7 0.07,1.05 0,1.68 -0.595,2.345 -0.595,0.63 -1.995,0.63 -1.4,0 -2.135,-0.035 z"
         style="font-style:normal;font-variant:normal;font-weight:normal;font-stretch:normal;font-size:35px;font-family:'Merienda One';-inkscape-font-specification:'Merienda One';fill:#e15e0d;fill-opacity:1"
         id="path3392" />
      <path
         d="m 305.58791,197.65698 q 1.155,-3.955 3.605,-6.65 2.45,-2.73 4.55,-2.73 2.135,0 3.01,1.295 0.91,1.26 0.91,3.465 0,2.17 -0.7,6.125 -0.665,3.955 -0.665,5.775 0,1.785 0.455,2.625 0.455,0.805 1.54,1.4 -0.455,0.035 -1.295,0.035 -2.94,0 -4.2,-0.91 -1.225,-0.91 -1.225,-3.185 0,-1.295 0.7,-5.04 0.7,-3.78 0.7,-5.635 0,-2.31 -1.4,-2.31 -0.84,0 -1.855,0.945 -1.015,0.945 -1.96,2.59 -0.91,1.61 -1.54,4.165 -0.63,2.555 -0.63,5.11 0,2.52 0.21,3.745 -1.12,0.07 -1.47,0.07 -1.995,0 -2.87,-0.665 -0.875,-0.7 -0.875,-2.205 0,-1.505 0.595,-5.74 1.89,-13.02 1.89,-19.775 0,-3.045 -0.42,-4.095 2.625,0.7 3.57,2.135 0.98,1.4 0.98,3.99 0,1.75 -0.7,7.35 -0.665,5.6 -0.91,8.12 z"
         style="font-style:normal;font-variant:normal;font-weight:normal;font-stretch:normal;font-size:35px;font-family:'Merienda One';-inkscape-font-specification:'Merienda One';fill:#e15e0d;fill-opacity:1"
         id="path3394" />
      <path
         d="m 341.25892,192.02198 q -0.175,1.26 -0.735,4.375 -1.19,6.615 -1.19,9.8 0,3.185 0.49,4.27 -2.695,-0.7 -3.71,-2.135 -1.015,-1.47 -1.015,-4.13 0,-2.345 0.735,-6.405 0.735,-4.095 0.945,-5.53 -1.82,0.315 -3.885,1.225 -0.07,-0.77 -0.07,-1.155 0,-1.855 1.12,-2.52 1.12,-0.7 3.22,-0.735 0.245,-2.625 0.245,-3.78 0,-1.155 -0.035,-1.925 0,-0.77 0,-1.155 2.31,0.245 3.36,1.4 1.05,1.12 1.05,3.22 0,0.84 -0.175,2.345 2.94,-0.07 4.305,-1.155 0.07,0.7 0.07,1.05 0,1.68 -0.595,2.345 -0.595,0.63 -1.995,0.63 -1.4,0 -2.135,-0.035 z"
         style="font-style:normal;font-variant:normal;font-weight:normal;font-stretch:normal;font-size:35px;font-family:'Merienda One';-inkscape-font-specification:'Merienda One';fill:#e15e0d;fill-opacity:1"
         id="path3396" />
      <path
         d="m 352.41408,197.65698 q 1.155,-3.955 3.605,-6.65 2.45,-2.73 4.55,-2.73 2.135,0 3.01,1.295 0.91,1.26 0.91,3.465 0,2.17 -0.7,6.125 -0.665,3.955 -0.665,5.775 0,1.785 0.455,2.625 0.455,0.805 1.54,1.4 -0.455,0.035 -1.295,0.035 -2.94,0 -4.2,-0.91 -1.225,-0.91 -1.225,-3.185 0,-1.295 0.7,-5.04 0.7,-3.78 0.7,-5.635 0,-2.31 -1.4,-2.31 -0.84,0 -1.855,0.945 -1.015,0.945 -1.96,2.59 -0.91,1.61 -1.54,4.165 -0.63,2.555 -0.63,5.11 0,2.52 0.21,3.745 -1.12,0.07 -1.47,0.07 -1.995,0 -2.87,-0.665 -0.875,-0.7 -0.875,-2.205 0,-1.505 0.595,-5.74 1.89,-13.02 1.89,-19.775 0,-3.045 -0.42,-4.095 2.625,0.7 3.57,2.135 0.98,1.4 0.98,3.99 0,1.75 -0.7,7.35 -0.665,5.6 -0.91,8.12 z"
         style="font-style:normal;font-variant:normal;font-weight:normal;font-stretch:normal;font-size:35px;font-family:'Merienda One';-inkscape-font-specification:'Merienda One';fill:#e15e0d;fill-opacity:1"
         id="path3398" />
      <path
         d="m 374.46736,197.09698 q 1.26,-4.55 3.01,-6.685 1.785,-2.17 3.29,-2.17 1.54,0 2.31,1.155 0.77,1.12 0.77,2.94 0,1.785 -1.085,3.29 -1.05,1.505 -2.905,1.505 -0.49,0 -1.155,-0.28 1.085,-1.365 1.085,-3.29 0,-1.12 -0.91,-1.12 -0.665,0 -1.435,0.945 -0.77,0.91 -1.47,2.555 -0.7,1.61 -1.19,4.165 -0.455,2.52 -0.455,5.39 0,0.35 0.175,2.975 -1.12,0.07 -1.435,0.07 -1.995,0 -2.87,-0.7 -0.875,-0.7 -0.875,-2.31 0,-0.7 0.735,-5.39 0.735,-4.69 0.735,-7.455 0,-2.8 -0.595,-5.145 2.555,0.805 3.57,2.31 1.015,1.47 1.015,3.465 0,1.96 -0.315,3.78 z"
         style="font-style:normal;font-variant:normal;font-weight:normal;font-stretch:normal;font-size:35px;font-family:'Merienda One';-inkscape-font-specification:'Merienda One';fill:#e15e0d;fill-opacity:1"
         id="path3400" />
      <path
         d="m 395.70853,190.93698 q -2.275,0 -4.06,3.08 -1.785,3.045 -1.785,6.09 0,6.37 3.29,6.37 2.345,0 3.815,-3.045 1.47,-3.08 1.47,-6.895 0,-5.6 -2.73,-5.6 z m -2.975,-3.15 q 0.385,0 0.7,0.245 0.35,0.21 0.35,0.455 -3.535,2.45 -4.235,6.825 0.735,-1.96 1.785,-3.395 1.085,-1.435 2.24,-2.17 2.205,-1.365 4.305,-1.365 2.1,0 3.57,2.065 1.47,2.065 1.47,5.53 0,3.885 -1.575,7.14 -1.75,3.675 -4.97,5.075 -1.82,0.805 -3.99,0.805 -3.045,0 -5.32,-2.345 -2.24,-2.38 -2.24,-6.79 0,-4.445 2.17,-7.805 2.17,-3.395 5.74,-4.27 z"
         style="font-style:normal;font-variant:normal;font-weight:normal;font-stretch:normal;font-size:35px;font-family:'Merienda One';-inkscape-font-specification:'Merienda One';fill:#e15e0d;fill-opacity:1"
         id="path3402" />
      <path
         d="m 418.43009,188.27698 q 1.05,-0.07 1.47,-0.07 1.82,0 2.765,0.665 0.945,0.665 0.945,2.45 0,0.56 -0.665,4.935 -0.665,4.34 -0.665,7.455 0,3.115 0.665,5.495 -2.625,-0.84 -3.64,-2.38 -1.015,-1.54 -1.015,-3.815 0,-0.875 0.385,-3.955 -1.085,3.99 -3.325,6.72 -2.205,2.695 -4.165,2.695 -4.025,0 -4.025,-5.81 0,-1.925 0.56,-5.355 0.595,-3.465 0.595,-5.25 0,-1.785 -0.49,-3.605 2.905,0 4.2,0.77 1.33,0.735 1.33,2.975 0,1.19 -0.735,4.725 -0.735,3.535 -0.735,5.32 0,2.59 1.4,2.59 0.7,0 1.61,-0.945 0.91,-0.98 1.75,-2.555 0.84,-1.61 1.4,-3.99 0.595,-2.415 0.595,-4.865 0,-2.485 -0.21,-4.2 z"
         style="font-style:normal;font-variant:normal;font-weight:normal;font-stretch:normal;font-size:35px;font-family:'Merienda One';-inkscape-font-specification:'Merienda One';fill:#e15e0d;fill-opacity:1"
         id="path3404" />
      <path
         d="m 438.8515,188.62698 q 0.665,0 1.015,0.07 0.91,0.175 0.98,1.295 -3.815,0.805 -6.09,4.13 -2.24,3.325 -2.24,6.93 0,4.2 2.555,4.2 1.54,0 2.765,-1.68 2.17,-3.045 3.045,-9.52 0.665,-5.11 2.485,-6.58 0.875,-0.735 2.17,-1.155 -0.49,3.71 -0.49,5.6 0,14 -3.01,21.035 -2.975,7.035 -9.73,7.035 -2.73,0 -4.27,-1.47 -1.54,-1.435 -1.54,-3.185 0,-1.715 1.085,-2.835 1.085,-1.085 3.045,-1.085 0.805,0 1.645,0.35 -1.33,0.875 -1.33,2.695 0,1.225 0.735,2.1 0.735,0.91 1.785,0.91 1.085,0 1.89,-0.455 0.805,-0.42 1.645,-1.54 0.84,-1.12 1.47,-2.8 1.435,-3.885 1.575,-10.605 -1.015,3.01 -3.08,4.83 -2.065,1.82 -4.2,1.82 -2.695,0 -4.13,-2.03 -1.4,-2.065 -1.4,-5.25 0,-3.71 1.785,-6.895 1.995,-3.675 5.53,-5.11 1.96,-0.805 4.305,-0.805 z"
         style="font-style:normal;font-variant:normal;font-weight:normal;font-stretch:normal;font-size:35px;font-family:'Merienda One';-inkscape-font-specification:'Merienda One';fill:#e15e0d;fill-opacity:1"
         id="path3406" />
      <path
         d="m 454.81642,197.65698 q 1.155,-3.955 3.605,-6.65 2.45,-2.73 4.55,-2.73 2.135,0 3.01,1.295 0.91,1.26 0.91,3.465 0,2.17 -0.7,6.125 -0.665,3.955 -0.665,5.775 0,1.785 0.455,2.625 0.455,0.805 1.54,1.4 -0.455,0.035 -1.295,0.035 -2.94,0 -4.2,-0.91 -1.225,-0.91 -1.225,-3.185 0,-1.295 0.7,-5.04 0.7,-3.78 0.7,-5.635 0,-2.31 -1.4,-2.31 -0.84,0 -1.855,0.945 -1.015,0.945 -1.96,2.59 -0.91,1.61 -1.54,4.165 -0.63,2.555 -0.63,5.11 0,2.52 0.21,3.745 -1.12,0.07 -1.47,0.07 -1.995,0 -2.87,-0.665 -0.875,-0.7 -0.875,-2.205 0,-1.505 0.595,-5.74 1.89,-13.02 1.89,-19.775 0,-3.045 -0.42,-4.095 2.625,0.7 3.57,2.135 0.98,1.4 0.98,3.99 0,1.75 -0.7,7.35 -0.665,5.6 -0.91,8.12 z"
         style="font-style:normal;font-variant:normal;font-weight:normal;font-stretch:normal;font-size:35px;font-family:'Merienda One';-inkscape-font-specification:'Merienda One';fill:#e15e0d;fill-opacity:1"
         id="path3408" />
      <path
         d="m 489.82244,191.07698 q 0,0.525 -0.875,5.53 -0.84,4.97 -0.875,8.225 0,3.22 0.42,4.165 -2.73,-0.7 -3.675,-2.1 -0.945,-1.435 -0.945,-4.165 0,-1.47 0.56,-5.32 0.56,-3.85 0.56,-5.985 0,-2.135 -0.21,-3.29 0.77,-0.07 1.435,-0.07 2.03,0 2.8,0.7 0.805,0.665 0.805,2.31 z m 0.525,-6.09 q -0.98,0.14 -1.715,0.14 -3.605,0 -3.605,-2.52 0,-0.91 0.525,-2.485 0.98,-0.14 1.715,-0.14 3.605,0 3.605,2.52 0,0.91 -0.525,2.485 z"
         style="font-style:normal;font-variant:normal;font-weight:normal;font-stretch:normal;font-size:35px;font-family:'Merienda One';-inkscape-font-specification:'Merienda One';fill:#e15e0d;fill-opacity:1"
         id="path3410" />
      <path
         d="m 507.71838,188.27698 q 2.065,0 2.94,1.295 0.91,1.26 0.91,3.465 0,2.17 -0.7,6.125 -0.665,3.955 -0.665,5.775 0,1.785 0.455,2.625 0.455,0.805 1.54,1.4 -0.455,0.035 -1.295,0.035 -2.94,0 -4.2,-0.91 -1.225,-0.91 -1.225,-3.185 0,-1.295 0.7,-5.04 0.7,-3.78 0.7,-5.635 0,-2.31 -1.4,-2.31 -0.805,0 -1.82,0.945 -1.015,0.945 -1.96,2.59 -0.945,1.61 -1.575,4.165 -0.63,2.555 -0.63,5.11 0,2.52 0.21,3.745 -1.12,0.07 -1.47,0.07 -1.995,0 -2.87,-0.7 -0.875,-0.7 -0.875,-2.31 0,-0.7 0.735,-5.39 0.735,-4.69 0.735,-7.455 0,-2.8 -0.595,-5.145 2.555,0.805 3.57,2.31 1.015,1.47 1.015,3.395 0,1.89 -0.42,4.41 1.155,-3.92 3.64,-6.65 2.485,-2.73 4.55,-2.73 z"
         style="font-style:normal;font-variant:normal;font-weight:normal;font-stretch:normal;font-size:35px;font-family:'Merienda One';-inkscape-font-specification:'Merienda One';fill:#e15e0d;fill-opacity:1"
         id="path3412" />
      <path
         d="m 529.66174,188.27698 q 2.065,0 2.94,1.295 0.91,1.26 0.91,3.465 0,2.17 -0.7,6.125 -0.665,3.955 -0.665,5.775 0,1.785 0.455,2.625 0.455,0.805 1.54,1.4 -0.455,0.035 -1.295,0.035 -2.94,0 -4.2,-0.91 -1.225,-0.91 -1.225,-3.185 0,-1.295 0.7,-5.04 0.7,-3.78 0.7,-5.635 0,-2.31 -1.4,-2.31 -0.805,0 -1.82,0.945 -1.015,0.945 -1.96,2.59 -0.945,1.61 -1.575,4.165 -0.63,2.555 -0.63,5.11 0,2.52 0.21,3.745 -1.12,0.07 -1.47,0.07 -1.995,0 -2.87,-0.7 -0.875,-0.7 -0.875,-2.31 0,-0.7 0.735,-5.39 0.735,-4.69 0.735,-7.455 0,-2.8 -0.595,-5.145 2.555,0.805 3.57,2.31 1.015,1.47 1.015,3.395 0,1.89 -0.42,4.41 1.155,-3.92 3.64,-6.65 2.485,-2.73 4.55,-2.73 z"
         style="font-style:normal;font-variant:normal;font-weight:normal;font-stretch:normal;font-size:35px;font-family:'Merienda One';-inkscape-font-specification:'Merienda One';fill:#e15e0d;fill-opacity:1"
         id="path3414" />
      <path
         d="m 548.56009,190.93698 q -2.275,0 -4.06,3.08 -1.785,3.045 -1.785,6.09 0,6.37 3.29,6.37 2.345,0 3.815,-3.045 1.47,-3.08 1.47,-6.895 0,-5.6 -2.73,-5.6 z m -2.975,-3.15 q 0.385,0 0.7,0.245 0.35,0.21 0.35,0.455 -3.535,2.45 -4.235,6.825 0.735,-1.96 1.785,-3.395 1.085,-1.435 2.24,-2.17 2.205,-1.365 4.305,-1.365 2.1,0 3.57,2.065 1.47,2.065 1.47,5.53 0,3.885 -1.575,7.14 -1.75,3.675 -4.97,5.075 -1.82,0.805 -3.99,0.805 -3.045,0 -5.32,-2.345 -2.24,-2.38 -2.24,-6.79 0,-4.445 2.17,-7.805 2.17,-3.395 5.74,-4.27 z"
         style="font-style:normal;font-variant:normal;font-weight:normal;font-stretch:normal;font-size:35px;font-family:'Merienda One';-inkscape-font-specification:'Merienda One';fill:#e15e0d;fill-opacity:1"
         id="path3416" />
      <path
         d="m 566.83666,208.47198 q -1.12,0.49 -2.345,0.49 -1.225,0 -1.365,-0.525 -0.56,-2.24 -1.295,-6.685 -0.735,-4.48 -1.505,-7.805 -0.735,-3.36 -1.785,-5.075 1.925,-0.91 3.08,-0.91 1.155,0 1.75,0.525 0.595,0.525 0.98,2.1 0.42,1.54 0.595,2.555 0.49,3.36 0.49,3.745 0,0.385 0.28,3.15 0.28,2.73 0.42,3.605 6.23,-12.075 6.23,-16.135 2.87,1.47 2.87,3.185 0,1.4 -1.47,4.165 -1.435,2.73 -3.64,6.65 -2.17,3.885 -3.29,6.965 z"
         style="font-style:normal;font-variant:normal;font-weight:normal;font-stretch:normal;font-size:35px;font-family:'Merienda One';-inkscape-font-specification:'Merienda One';fill:#e15e0d;fill-opacity:1"
         id="path3418" />
      <path
         d="m 582.08353,201.85698 q 0,1.645 0.595,2.695 0.63,1.015 1.75,1.015 1.645,0 3.115,-1.925 1.505,-1.925 2.38,-4.935 0.91,-3.01 0.91,-5.705 0,-2.73 -0.21,-4.41 1.05,-0.07 1.47,-0.07 1.785,0 2.695,0.665 0.91,0.665 0.91,2.38 0,0.665 -0.84,5.425 -0.84,4.725 -0.84,7.595 0,2.835 1.085,5.04 -2.625,-0.455 -3.85,-1.925 -1.225,-1.505 -1.225,-4.305 0,-0.49 0.14,-1.89 -0.945,3.325 -3.36,5.355 -2.415,2.03 -4.76,2.03 -2.31,0 -3.745,-1.715 -1.4,-1.75 -1.4,-4.935 0,-3.185 1.12,-6.16 1.155,-3.01 3.43,-5.075 2.275,-2.1 5.075,-2.1 1.61,0 3.29,0.77 -3.535,1.26 -5.635,4.97 -2.1,3.675 -2.1,7.21 z"
         style="font-style:normal;font-variant:normal;font-weight:normal;font-stretch:normal;font-size:35px;font-family:'Merienda One';-inkscape-font-specification:'Merienda One';fill:#e15e0d;fill-opacity:1"
         id="path3420" />
      <path
         d="m 607.45033,192.02198 q -0.175,1.26 -0.735,4.375 -1.19,6.615 -1.19,9.8 0,3.185 0.49,4.27 -2.695,-0.7 -3.71,-2.135 -1.015,-1.47 -1.015,-4.13 0,-2.345 0.735,-6.405 0.735,-4.095 0.945,-5.53 -1.82,0.315 -3.885,1.225 -0.07,-0.77 -0.07,-1.155 0,-1.855 1.12,-2.52 1.12,-0.7 3.22,-0.735 0.245,-2.625 0.245,-3.78 0,-1.155 -0.035,-1.925 0,-0.77 0,-1.155 2.31,0.245 3.36,1.4 1.05,1.12 1.05,3.22 0,0.84 -0.175,2.345 2.94,-0.07 4.305,-1.155 0.07,0.7 0.07,1.05 0,1.68 -0.595,2.345 -0.595,0.63 -1.995,0.63 -1.4,0 -2.135,-0.035 z"
         style="font-style:normal;font-variant:normal;font-weight:normal;font-stretch:normal;font-size:35px;font-family:'Merienda One';-inkscape-font-specification:'Merienda One';fill:#e15e0d;fill-opacity:1"
         id="path3422" />
      <path
         d="m 620.32049,191.07698 q 0,0.525 -0.875,5.53 -0.84,4.97 -0.875,8.225 0,3.22 0.42,4.165 -2.73,-0.7 -3.675,-2.1 -0.945,-1.435 -0.945,-4.165 0,-1.47 0.56,-5.32 0.56,-3.85 0.56,-5.985 0,-2.135 -0.21,-3.29 0.77,-0.07 1.435,-0.07 2.03,0 2.8,0.7 0.805,0.665 0.805,2.31 z m 0.525,-6.09 q -0.98,0.14 -1.715,0.14 -3.605,0 -3.605,-2.52 0,-0.91 0.525,-2.485 0.98,-0.14 1.715,-0.14 3.605,0 3.605,2.52 0,0.91 -0.525,2.485 z"
         style="font-style:normal;font-variant:normal;font-weight:normal;font-stretch:normal;font-size:35px;font-family:'Merienda One';-inkscape-font-specification:'Merienda One';fill:#e15e0d;fill-opacity:1"
         id="path3424" />
      <path
         d="m 635.17142,190.93698 q -2.275,0 -4.06,3.08 -1.785,3.045 -1.785,6.09 0,6.37 3.29,6.37 2.345,0 3.815,-3.045 1.47,-3.08 1.47,-6.895 0,-5.6 -2.73,-5.6 z m -2.975,-3.15 q 0.385,0 0.7,0.245 0.35,0.21 0.35,0.455 -3.535,2.45 -4.235,6.825 0.735,-1.96 1.785,-3.395 1.085,-1.435 2.24,-2.17 2.205,-1.365 4.305,-1.365 2.1,0 3.57,2.065 1.47,2.065 1.47,5.53 0,3.885 -1.575,7.14 -1.75,3.675 -4.97,5.075 -1.82,0.805 -3.99,0.805 -3.045,0 -5.32,-2.345 -2.24,-2.38 -2.24,-6.79 0,-4.445 2.17,-7.805 2.17,-3.395 5.74,-4.27 z"
         style="font-style:normal;font-variant:normal;font-weight:normal;font-stretch:normal;font-size:35px;font-family:'Merienda One';-inkscape-font-specification:'Merienda One';fill:#e15e0d;fill-opacity:1"
         id="path3426" />
      <path
         d="m 659.81799,188.27698 q 2.065,0 2.94,1.295 0.91,1.26 0.91,3.465 0,2.17 -0.7,6.125 -0.665,3.955 -0.665,5.775 0,1.785 0.455,2.625 0.455,0.805 1.54,1.4 -0.455,0.035 -1.295,0.035 -2.94,0 -4.2,-0.91 -1.225,-0.91 -1.225,-3.185 0,-1.295 0.7,-5.04 0.7,-3.78 0.7,-5.635 0,-2.31 -1.4,-2.31 -0.805,0 -1.82,0.945 -1.015,0.945 -1.96,2.59 -0.945,1.61 -1.575,4.165 -0.63,2.555 -0.63,5.11 0,2.52 0.21,3.745 -1.12,0.07 -1.47,0.07 -1.995,0 -2.87,-0.7 -0.875,-0.7 -0.875,-2.31 0,-0.7 0.735,-5.39 0.735,-4.69 0.735,-7.455 0,-2.8 -0.595,-5.145 2.555,0.805 3.57,2.31 1.015,1.47 1.015,3.395 0,1.89 -0.42,4.41 1.155,-3.92 3.64,-6.65 2.485,-2.73 4.55,-2.73 z"
         style="font-style:normal;font-variant:normal;font-weight:normal;font-stretch:normal;font-size:35px;font-family:'Merienda One';-inkscape-font-specification:'Merienda One';fill:#e15e0d;fill-opacity:1"
         id="path3428" />
    </g>
    <g
       style="font-style:normal;font-weight:normal;font-size:40px;line-height:125%;font-family:sans-serif;letter-spacing:-2.81999969px;word-spacing:0px;fill:#000000;fill-opacity:1;stroke:none;stroke-width:1px;stroke-linecap:butt;stroke-linejoin:miter;stroke-opacity:1"
       id="text4787">
      <path
         d="m 72.892018,179.40651 q -2.475,0 -4.125,1.54 -1.65,1.485 -1.65,4.235 0,2.75 1.375,4.95 1.43,2.145 3.465,3.685 2.09,1.485 4.51,3.245 2.475,1.76 4.51,3.355 2.09,1.54 3.465,3.85 1.43,2.31 1.43,4.895 0,5.115 -4.18,8.69 -4.18,3.52 -11,3.52 -6.765,0 -10.725,-2.915 -3.96,-2.915 -3.96,-6.6 0,-3.685 2.2,-5.72 2.2,-2.09 5.665,-2.09 0.99,0 1.87,0.22 -1.705,2.53 -1.705,5.5 0,2.915 1.815,5.06 1.815,2.09 4.785,2.09 3.025,0 5.06,-1.54 2.035,-1.595 2.035,-4.015 0,-2.475 -1.375,-4.345 -1.375,-1.87 -3.41,-3.19 -2.035,-1.375 -4.455,-3.08 -2.42,-1.76 -4.455,-3.52 -2.035,-1.76 -3.41,-4.455 -1.375,-2.75 -1.375,-5.995 0,-5.225 3.795,-8.305 3.795,-3.135 10.23,-3.135 6.435,0 9.735,2.915 3.355,2.86 3.355,6.16 0,3.245 -2.09,5.5 -2.09,2.2 -5.665,2.2 -1.21,0 -2.365,-0.22 2.695,-2.86 2.695,-5.995 0,-3.19 -1.76,-4.84 -1.76,-1.65 -4.29,-1.65 z"
         style="font-style:normal;font-variant:normal;font-weight:bold;font-stretch:normal;font-size:55px;font-family:Merienda;-inkscape-font-specification:Merienda;letter-spacing:-2px;word-spacing:0px;fill:#432179;fill-opacity:1"
         id="path3431" />
      <path
         d="m 88.294362,201.84651 q 0,-0.66 0.2475,-0.99 18.149998,-28.9575 21.202498,-43.3125 0.5775,0.165 1.98,1.155 1.485,0.99 2.3925,1.8975 2.2275,2.2275 2.2275,5.28 0,3.0525 -3.0525,8.3325 -2.97,5.1975 -8.4975,13.365 -5.444998,8.1675 -8.414998,13.4475 6.517498,-0.0825 19.222498,-0.99 1.0725,-7.6725 1.0725,-11.1375 0,-3.5475 -0.165,-6.3525 1.32,-0.165 2.2275,-0.165 2.97,0 4.455,1.815 1.485,1.815 1.485,5.0325 0,3.135 -1.0725,10.065 l 5.115,-0.5775 q 0.5775,2.0625 0.5775,4.3725 0,4.95 -6.27,4.95 l -0.495,0 q -0.2475,3.0525 -0.2475,7.8375 0,4.7025 0.495,7.0125 -1.65,0.165 -2.64,0.165 -3.7125,0 -5.5275,-2.145 -1.815,-2.0625 -1.815,-5.28 0,-1.155 1.32,-7.755 l -23.759998,-0.9075 q -2.0625,-1.32 -2.0625,-5.115 z"
         style="font-style:normal;font-variant:normal;font-weight:normal;font-stretch:normal;font-size:82.5px;font-family:Merienda;-inkscape-font-specification:Merienda;letter-spacing:-4.73000002px;word-spacing:0px;fill:#e15e0d;fill-opacity:1"
         id="path3433" />
      <path
         d="m 155.93311,170.39651 q 3,2.7 6.6,5.4 3.7,2.6 7.3,5.3 3.7,2.7 6.7,5.5 6.8,6.3 6.8,13.9 0,9.4 -7.2,15.7 -7.1,6.3 -18.8,6.3 -11.7,0 -18,-5.3 -6.3,-5.3 -6.3,-12.6 0,-5.4 3.2,-8.7 3.2,-3.4 8.3,-3.4 1.4,0 2.7,0.4 -3.1,4.7 -3.1,10.1 0,5.3 3.7,9.1 3.7,3.8 11.1,3.8 5.3,0 9.4,-3.2 4.2,-3.3 4.2,-9.1 0,-3.8 -2.5,-7.4 -2.5,-3.7 -6.2,-6.5 -3.7,-2.8 -8.1,-6.2 -4.4,-3.5 -8.1,-6.7 -3.7,-3.2 -6.2,-7.8 -2.5,-4.6 -2.5,-9.6 0,-9.5 6.4,-15 6.5,-5.6 18.7,-5.6 9.9,0 15.5,5.3 5.7,5.2 5.7,10.9 0,5.6 -3.1,9.2 -3,3.6 -8.3,3.6 -1.8,0 -3.5,-0.4 4.9,-5.2 4.9,-11 0,-5.8 -3.6,-8.7 -3.6,-3 -9.2,-3 -5.5,0 -9.4,3.2 -3.9,3.2 -3.9,9.7 0,6.5 6.8,12.8 z"
         style="font-style:normal;font-variant:normal;font-weight:normal;font-stretch:normal;font-size:100px;font-family:Merienda;-inkscape-font-specification:Merienda;letter-spacing:-4.73000002px;word-spacing:0px;fill:#432179;fill-opacity:1"
         id="path3435" />
    </g>
    <g
       style="display:inline;fill:#ff7f2a"
       transform="matrix(0.29868662,-0.04197766,0.04197766,0.29868662,37.20281,82.887573)"
       id="g3">
      <path
         style="fill:#e15e0d;fill-opacity:1"
         id="path5"
         d="m 73.205434,295.84249 c -10.400068,0.0744 -20.269942,-0.0835 -29.758503,-3.16157 -1.05913,-0.34359 -2.125808,-0.86039 -2.896323,-1.6642 -0.353998,-0.36929 -1.140537,-1.08923 -0.70764,-1.36179 0.190311,-0.11983 0.246833,0.37982 0.40541,0.53929 0.601278,0.60466 1.234468,1.25812 2.03618,1.54865 12.242517,4.43658 33.099035,2.39181 39.025102,1.76161 48.14136,-5.11951 93.6246,-25.91881 139.41341,-42.01518 79.74404,-28.03281 235.17574,-94.85212 235.17574,-94.85212 l -84.671,18.80343 c 0,0 -2.73478,0.43672 -3.67475,-0.35769 -0.5586,-0.4721 -0.76322,-1.41147 -0.5736,-2.11784 0.19909,-0.74161 0.98025,-1.2215 1.63482,-1.62297 1.81202,-1.11137 6.0562,-1.99731 6.0562,-1.99731 L 483.68153,144.89765 383.6974,224.1205 c 0,0 -1.06181,0.67023 -1.6548,0.85338 -0.69822,0.21565 -1.50708,0.56375 -2.17575,0.26895 -0.59656,-0.263 -1.07334,-0.94554 -1.1322,-1.59484 -0.0541,-0.59677 0.41139,-1.14174 0.76005,-1.6291 0.46739,-0.65331 1.73787,-1.66949 1.73787,-1.66949 l 69.42101,-55.21501 c 0,0 -149.66884,64.50717 -226.90845,90.16011 -49.31936,16.38002 -96.39777,38.36395 -150.539675,40.548 z" />
    </g>
  </g>
</svg>
