<?xml version="1.0" standalone="no"?>
<!DOCTYPE svg PUBLIC "-//W3C//DTD SVG 20010904//EN"
 "http://www.w3.org/TR/2001/REC-SVG-20010904/DTD/svg10.dtd">
<svg version="1.0" xmlns="http://www.w3.org/2000/svg"
 width="1800.000000pt" height="1800.000000pt" viewBox="0 0 1800.000000 1800.000000"
 preserveAspectRatio="xMidYMid meet">
<metadata>
Created by potrace 1.11, written by Peter Selinger 2001-2013
</metadata>
<g transform="translate(0.000000,1800.000000) scale(0.100000,-0.100000)"
fill="#000000" stroke="none">
<path d="M10677 10953 c-3 -3822 -6 -5069 -15 -5168 -31 -337 -73 -599 -133
-837 -225 -900 -721 -1406 -1534 -1567 -215 -43 -377 -55 -649 -48 -434 10
-747 83 -1101 257 -467 229 -861 615 -1197 1172 -51 85 -87 134 -94 130 -9 -6
-1092 -760 -1103 -768 -7 -6 112 -207 212 -358 581 -879 1349 -1435 2312
-1675 427 -106 902 -151 1383 -130 489 20 848 82 1218 210 804 277 1363 792
1773 1634 283 581 441 1251 481 2040 6 116 10 2120 10 5168 l0 4977 -780 0
-780 0 -3 -5037z"/>
</g>
</svg>
